{"title":"Big Hero 6 2014 720p HDCAM FIRST ENG x264 AAC.mp4","uid":11467633,"size":707735640,"categoryP":"video","categoryS":"movies","magnet":"?xt=urn:btih:58cacad365a58af993d3bef44272ebb0c6798b31&amp;dn=Big+Hero+6+2014+720p+HDCAM+FIRST+ENG+x264+AAC.mp4&amp;tr=udp%3A%2F%2Ftracker.openbittorrent.com%3A80&amp;tr=udp%3A%2F%2Fopen.demonii.com%3A1337&amp;tr=udp%3A%2F%2Ftracker.coppersurfer.tk%3A6969&amp;tr=udp%3A%2F%2Fexodus.desync.com%3A6969","seeders":4,"leechers":1,"uploader":"zloitoi","files":1,"time":1416009857,"description":"IMDB:  &lt;a href=&quot;\nhttp://www.imdb.com/title/tt2245084/?ref_=nv_sr_1&quot; rel=&quot;nofollow&quot; target=&quot;_NEW&quot;&gt;\nhttp://www.imdb.com/title/tt2245084/?ref_=nv_sr_1&lt;/a&gt;\n\nInformation :\n\nGeneral\nFormat                         : MPEG-4\nFormat profile                 : Base Media\nCodec ID                       : isom\nFile size                      : 675 MiB\nDuration                       : 1h 31mn\nOverall bit rate mode          : Variable\nOverall bit rate               : 1 032 Kbps\nEncoded date                   : UTC 2014-11-15 10:37:11\nTagged date                    : UTC 2014-11-15 10:37:11\nWriting application            : FormatFactory : www.pcfreetime.com\n\nVideo\nID                             : 1\nFormat                         : MPEG-4 Visual\nFormat profile                 : Simple@L1\nFormat settings, BVOP          : No\nFormat settings, QPel          : No\nFormat settings, GMC           : No warppoints\nFormat settings, Matrix        : Default (H.263)\nCodec ID                       : 20\nDuration                       : 1h 31mn\nBit rate mode                  : Variable\nBit rate                       : 901 Kbps\nMaximum bit rate               : 2 196 Kbps\nWidth                          : 1 280 pixels\nHeight                         : 536 pixels\nDisplay aspect ratio           : 2.40:1\nFrame rate mode                : Constant\nFrame rate                     : 23.976 fps\nColor space                    : YUV\nChroma subsampling             : 4:2:0\nBit depth                      : 8 bits\nScan type                      : Progressive\nCompression mode               : Lossy\nBits/(Pixel*Frame)             : 0.055\nStream size                    : 589 MiB (87%)\nWriting library                : Lavc53.8.0\nEncoded date                   : UTC 2014-11-15 10:37:11\nTagged date                    : UTC 2014-11-15 10:37:19\n\nAudio\nID                             : 2\nFormat                         : AAC\nFormat/Info                    : Advanced Audio Codec\nFormat profile                 : LC\nCodec ID                       : 40\nDuration                       : 1h 31mn\nBit rate mode                  : Variable\nBit rate                       : 129 Kbps\nMaximum bit rate               : 154 Kbps\nChannel(s)                     : 2 channels\nChannel positions              : Front: L R\nSampling rate                  : 48.0 KHz\nCompression mode               : Lossy\nStream size                    : 84.4 MiB (13%)\nEncoded date                   : UTC 2014-11-15 10:37:16\nTagged date                    : UTC 2014-11-15 10:37:19","torrent":{"xt":"urn:btih:58cacad365a58af993d3bef44272ebb0c6798b31","amp;dn":"Big+Hero+6+2014+720p+HDCAM+FIRST+ENG+x264+AAC.mp4","amp;tr":["udp%3A%2F%2Ftracker.openbittorrent.com%3A80","udp%3A%2F%2Fopen.demonii.com%3A1337","udp%3A%2F%2Ftracker.coppersurfer.tk%3A6969","udp%3A%2F%2Fexodus.desync.com%3A6969"],"infoHash":"58cacad365a58af993d3bef44272ebb0c6798b31","infoHashBuffer":{"type":"Buffer","data":[88,202,202,211,101,165,138,249,147,211,190,244,66,114,235,176,198,121,139,49]},"announce":[],"urlList":[]}}